<svg width="32" height="32" viewBox="0 0 32 32" fill="none" xmlns="http://www.w3.org/2000/svg">
<path d="M1.35059 10.7891V8H14.4912V10.7891H9.59277V24H6.24902V10.7891H1.35059Z" fill="black"/>
<path d="M30.6494 16C30.6494 21.2344 27.3994 24.2188 23.1572 24.2188C18.8916 24.2188 15.665 21.2109 15.665 16C15.665 10.7656 18.8916 7.78125 23.1572 7.78125C27.3994 7.78125 30.6494 10.7656 30.6494 16ZM27.2197 16C27.2197 12.6094 25.6104 10.7734 23.1572 10.7734C20.6963 10.7734 19.0947 12.6094 19.0947 16C19.0947 19.3906 20.6963 21.2266 23.1572 21.2266C25.6104 21.2266 27.2197 19.3906 27.2197 16Z" fill="black"/>
</svg>
